<?xml version="1.0" encoding="UTF-8" standalone="no"?>
<!-- Created with Inkscape (http://www.inkscape.org/) -->

<svg
   xmlns:dc="http://purl.org/dc/elements/1.1/"
   xmlns:cc="http://creativecommons.org/ns#"
   xmlns:rdf="http://www.w3.org/1999/02/22-rdf-syntax-ns#"
   xmlns:svg="http://www.w3.org/2000/svg"
   xmlns="http://www.w3.org/2000/svg"
   xmlns:sodipodi="http://sodipodi.sourceforge.net/DTD/sodipodi-0.dtd"
   xmlns:inkscape="http://www.inkscape.org/namespaces/inkscape"
   width="2707.0867"
   height="574.01575"
   id="svg2"
   version="1.1"
   inkscape:version="0.48.4 r9939"
   sodipodi:docname="basf-drehbank.svg">
  <defs
     id="defs4" />
  <sodipodi:namedview
     id="base"
     pagecolor="#ffffff"
     bordercolor="#666666"
     borderopacity="1.0"
     inkscape:pageopacity="0.0"
     inkscape:pageshadow="2"
     inkscape:zoom="0.35"
     inkscape:cx="1304.9915"
     inkscape:cy="653.73692"
     inkscape:document-units="px"
     inkscape:current-layer="layer1"
     showgrid="false"
     units="mm"
     inkscape:window-width="1600"
     inkscape:window-height="843"
     inkscape:window-x="-2"
     inkscape:window-y="-3"
     inkscape:window-maximized="1" />
  <metadata
     id="metadata7">
    <rdf:RDF>
      <cc:Work
         rdf:about="">
        <dc:format>image/svg+xml</dc:format>
        <dc:type
           rdf:resource="http://purl.org/dc/dcmitype/StillImage" />
      </cc:Work>
    </rdf:RDF>
  </metadata>
  <g
     inkscape:label="Ebene 1"
     inkscape:groupmode="layer"
     id="layer1"
     transform="translate(0,-478.34712)">
    <text
       xml:space="preserve"
       style="font-size:40.3859787px;font-style:normal;font-variant:normal;font-weight:bold;font-stretch:normal;line-height:125%;letter-spacing:0px;word-spacing:0px;fill:#000000;fill-opacity:1;stroke:none;font-family:Arial;-inkscape-font-specification:Arial Bold"
       x="39.895718"
       y="637.69379"
       id="text2985"
       sodipodi:linespacing="125%"
       transform="scale(1.0096487,0.99044351)"><tspan
         sodipodi:role="line"
         id="tspan2987"
         x="39.895718"
         y="637.69379"
         style="font-size:145.38949585px;font-style:normal;font-variant:normal;font-weight:normal;font-stretch:normal;font-family:Arial;-inkscape-font-specification:Arial">Finanziert aus</tspan><tspan
         sodipodi:role="line"
         x="39.895718"
         y="819.43066"
         style="font-size:145.38949585px;font-style:normal;font-variant:normal;font-weight:normal;font-stretch:normal;font-family:Arial;-inkscape-font-specification:Arial"
         id="tspan2989">Studiengebühren und von</tspan></text>
    <g
       id="g3056"
       transform="translate(264.65997,484.87322)" />
    <g
       id="layer1-6"
       transform="matrix(1.0193913,0,0,1.0000003,1749.0056,671.14609)">
      <g
         id="Ebene_x0020_1"
         style="fill:#000000;fill-opacity:1;fill-rule:evenodd"
         transform="matrix(3.543307e-5,0,0,3.543307e-5,-3.510006e-4,-5.761719e-6)">
        <path
           id="path10"
           style="fill:#000000;fill-opacity:1"
           d="m 1054220,7515010 -554220,0 0,-186680 1329770,0 0,186680 -554300,0 0,1476390 -221250,0 0,-1476390 0,0 z m 927160,-186680 197520,0 0,636020 4990,0 c 64900,-144610 235090,-204840 379700,-204840 316800,0 414350,181600 414350,440170 l 0,791720 -198090,0 0,-814880 c 0,-146940 -93140,-242160 -244250,-242160 -240080,0 -356700,160110 -356700,377280 l 0,679760 -197520,0 0,-1663070 z m 4394920,501070 c -46730,-235330 -235410,-354120 -465830,-354120 -396110,0 -563630,325960 -563630,673250 0,379450 167520,696250 565710,696250 291230,0 458750,-204590 479660,-479910 l 221260,0 c -41740,414350 -300060,665930 -719410,665930 -517230,0 -768810,-381450 -768810,-866020 0,-482330 274820,-875770 787300,-875770 347040,0 633610,186270 684750,540390 l -221000,0 z m 479580,-501070 197840,0 0,636020 4670,0 c 65560,-144610 235410,-204840 379700,-204840 316800,0 414930,181600 414930,440170 l 0,791720 -198350,0 0,-814880 c 0,-146940 -93130,-242160 -244490,-242160 -239830,0 -356460,160110 -356460,377280 l 0,679760 -197840,0 0,-1663070 z m 2545580,459080 186350,0 0,176940 4670,0 c 88710,-134950 223670,-204840 389110,-204840 146610,0 281480,57890 330630,204840 81630,-127870 223580,-204840 377280,-204840 239830,0 400600,100210 400600,349370 l 0,882520 -198090,0 0,-789300 c 0,-149370 -39400,-267740 -232750,-267740 -191020,0 -314140,120790 -314140,307060 l 0,749980 -198090,0 0,-789300 c 0,-156360 -49070,-267740 -226000,-267740 -235420,0 -321810,216590 -321810,307060 l 0,749980 -197760,0 0,-1203990 z m 3321390,386450 c -30570,-151360 -135200,-239500 -297980,-239500 -286810,0 -375610,225090 -375610,470160 0,221010 100210,440260 352120,440260 191020,0 304980,-111960 330550,-293890 l 202760,0 c -44320,293890 -228330,468410 -530980,468410 -368280,0 -563960,-255900 -563960,-614780 0,-360870 186600,-645010 568380,-645010 272650,0 491320,127780 519560,414350 l -204840,0 z m 1695640,-845530 197510,0 0,1663070 -197510,0 0,-1663070 z m 2354570,501070 c -47070,-235330 -235420,-354120 -465830,-354120 -396110,0 -563630,325960 -563630,673250 0,379450 167520,696250 565710,696250 291480,0 459330,-204590 480160,-479910 l 221000,0 c -41980,414350 -300640,665930 -719650,665930 -517240,0 -768480,-381450 -768480,-866020 0,-482330 274150,-875770 786970,-875770 347040,0 633600,186270 684750,540390 l -221000,0 z m 1816090,-41990 186350,0 0,176940 5340,0 c 88130,-134950 223580,-204840 389020,-204840 146370,0 281570,57890 330050,204840 81390,-127870 223920,-204840 377360,-204840 239750,0 400190,100210 400190,349370 l 0,882520 -197180,0 0,-789300 c 0,-149370 -39650,-267740 -232990,-267740 -191600,0 -314470,120790 -314470,307060 l 0,749980 -197770,0 0,-789300 c 0,-156360 -49400,-267740 -226000,-267740 -235080,0 -322050,216590 -322050,307060 l 0,749980 -197850,0 0,-1203990 z m 4618260,0 187260,0 0,191270 4420,0 c 83970,-149280 219170,-219170 390780,-219170 316800,0 415260,181600 415260,440170 l 0,791720 -197760,0 0,-814880 c 0,-146940 -93720,-242160 -245080,-242160 -240080,0 -355870,160110 -355870,377280 l 0,679760 -199010,0 0,-1203990 z m 1768280,1365010 c -90800,234830 -172190,321220 -349380,321220 -46150,0 -92880,-4660 -137530,-20830 l 0,-182180 c 36740,11410 76970,28490 116960,28490 81390,0 125450,-39990 162770,-109960 l 81390,-204510 -477240,-1197240 223670,0 351450,985070 4670,0 337380,-985070 209840,0 -523980,1365010 z M 4303290,8609370 c -53820,265400 -244500,409930 -514900,409930 -384360,0 -565960,-265320 -577460,-633600 0,-360870 237500,-626190 566050,-626190 426090,0 556550,397600 545130,689080 l -901340,0 c -7330,209840 111380,396190 374700,396190 163110,0 277150,-79050 312140,-235410 l 195680,0 z m -191020,-335050 c -9410,-188930 -151360,-339960 -347040,-339960 -207170,0 -330630,155690 -344460,339960 l 691500,0 z m 5065510,335050 c -53480,265400 -244490,409930 -514810,409930 -384110,0 -565720,-265320 -577460,-633600 0,-360870 237750,-626190 565960,-626190 426430,0 556630,397600 545140,689080 l -901340,0 c -7000,209840 111710,396190 375030,396190 163110,0 277150,-79050 312050,-235410 l 195430,0 z m -190680,-335050 c -9750,-188930 -151690,-339960 -347120,-339960 -207180,0 -330880,155690 -344710,339960 l 691830,0 z m 2412380,-945990 198100,0 0,242160 -198100,0 0,-242160 z m 0,459080 198100,0 0,1203990 -198100,0 0,-1203990 z m 2822990,1199910 c -34410,20240 -79060,31980 -142200,31980 -102300,0 -167530,-55810 -167530,-186260 -109290,127780 -256240,186260 -423760,186260 -218920,0 -398520,-97540 -398520,-337620 0,-272160 202510,-330890 407600,-370040 219260,-42320 405600,-28150 405600,-177430 0,-172280 -142280,-199850 -268070,-199850 -167520,0 -291220,51150 -300890,227420 l -197510,0 c 12080,-297640 242410,-402270 509900,-402270 217170,0 451670,48730 451670,330540 l 0,619860 c 0,93140 0,134870 63150,134870 16490,0 35320,-2330 60560,-11740 l 0,154280 z m -321220,-618030 c -77310,56140 -226000,58480 -358790,81720 -130200,22910 -242740,69890 -242740,216840 0,130450 112540,176930 233660,176930 260910,0 367870,-163100 367870,-272730 l 0,-202760 z m 3870940,-609780 c 381780,0 584210,276810 584210,630600 0,352380 -202430,629190 -584210,629190 -382280,0 -584540,-276810 -584540,-629190 0,-353790 202260,-630600 584540,-630600 z m 0,1085270 c 206590,0 374110,-163100 374110,-454670 0,-293220 -167520,-455750 -374110,-455750 -207180,0 -374700,162530 -374700,455750 0,291570 167520,454670 374700,454670 z m 2810900,-1057370 197850,0 0,162780 4660,0 c 65560,-132790 219260,-190680 384370,-190680 370280,0 554300,293220 554300,633020 0,340290 -181610,626770 -549560,626770 -123450,0 -300640,-46400 -389110,-188680 l -4660,0 0,622190 -197850,0 0,-1665400 z m 559300,146950 c -266240,0 -368280,227420 -368280,454000 0,237170 107290,456420 379690,456420 270070,0 360630,-230750 360630,-466080 0,-225420 -115800,-444340 -372040,-444340 z m 1881660,1052960 c -34990,20240 -79060,31980 -142200,31980 -102300,0 -167270,-55810 -167270,-186260 -109630,127780 -256490,186260 -424020,186260 -219250,0 -398770,-97540 -398770,-337620 0,-272160 203010,-330890 407850,-370040 218670,-42320 405270,-28150 405270,-177430 0,-172280 -141610,-199850 -267730,-199850 -167530,0 -291230,51150 -300650,227420 l -197420,0 c 11410,-297640 241830,-402270 509810,-402270 215760,0 451090,48730 451090,330540 l 0,619860 c 0,93140 0,134870 63230,134870 16740,0 35230,-2330 60810,-11740 l 0,154280 z m -321470,-618030 c -76720,56140 -226000,58480 -358540,81720 -130780,22910 -242490,69890 -242490,216840 0,130450 111710,176930 233080,176930 260990,0 367950,-163100 367950,-272730 l 0,-202760 z M 9457880,660310 c 0,0 2077750,0 2494770,0 915670,0 1333850,610370 1333850,1168500 0,402020 -154280,661760 -568960,902760 522810,193340 807290,541880 807290,1080020 0,643270 -466910,1325940 -1569020,1325940 -610360,0 -2499100,0 -2499100,0 l 1170,-4477220 0,0 z m 1362420,3466250 c 0,0 580710,0 902760,0 321550,0 466090,-229750 466090,-433170 0,94050 41480,-370870 -420520,-370870 -242750,0 -948330,0 -948330,0 l 0,804040 z m 2920,-1703550 c 0,0 420270,0 725570,0 331800,0 463750,-154280 463750,-380860 0,-52650 -15830,-344710 -368530,-344710 160770,0 -820790,0 -820790,0 l 0,725570 z m 4120430,-1762700 1442650,0 1642740,4471890 -1480460,0 -216930,-669670 -1382080,0 -183690,666510 -1469380,0 1647150,-4468730 0,0 z m 662430,1327190 -380610,1493460 814040,0 -433430,-1493460 z m 4723720,2580 1375340,0 c 0,-759310 -571300,-1463720 -1926640,-1463720 -1487300,0 -1947800,820450 -1947800,1421160 0,968310 1185490,1226050 1222220,1237470 177190,55890 912840,253070 1096440,318550 159280,56730 311220,184270 311220,354450 0,261580 -311220,387030 -570710,387030 -166020,0 -725820,-54980 -725820,-648020 l -1421240,0 c 0,787640 541970,1668320 2061840,1668320 1677480,0 2028360,-1000310 2028360,-1531950 0,-434340 -246250,-916000 -813710,-1145250 -341540,-138120 -907510,-258910 -1191400,-341710 -143450,-42070 -620950,-138790 -620950,-430010 0,-373200 615360,-324970 525400,-324970 278060,0 597450,156360 597450,498650 l 0,0 z m 1736540,-1330930 3433680,0 0,1181650 -2061590,0 0,787890 1837920,0 0,1129340 -1844670,0 0,1378590 -1371840,0 6500,-4477470 0,0 z M 502340,5138120 l 4477810,0 0,-4477810 -4477810,0 0,4477810 0,0 z m 1377670,-3100390 1722130,0 0,1722130 -1722130,0 0,-1722130 z m 4477810,0 1722380,0 0,1722130 -1722380,0 0,-1722130 z"
           inkscape:connector-curvature="0" />
      </g>
    </g>
  </g>
</svg>
