<?xml version="1.0" encoding="UTF-8" standalone="no"?>
<!-- Created with Inkscape (http://www.inkscape.org/) -->

<svg
   xmlns:dc="http://purl.org/dc/elements/1.1/"
   xmlns:cc="http://creativecommons.org/ns#"
   xmlns:rdf="http://www.w3.org/1999/02/22-rdf-syntax-ns#"
   xmlns:svg="http://www.w3.org/2000/svg"
   xmlns="http://www.w3.org/2000/svg"
   xmlns:sodipodi="http://sodipodi.sourceforge.net/DTD/sodipodi-0.dtd"
   xmlns:inkscape="http://www.inkscape.org/namespaces/inkscape"
   version="1.1"
   id="svg2"
   xml:space="preserve"
   width="1122.52"
   height="793.70001"
   viewBox="0 0 1122.52 793.70001"
   sodipodi:docname="formlabs_keinMetall.svg"
   inkscape:version="0.92.1 r15371"><metadata
     id="metadata8"><rdf:RDF><cc:Work
         rdf:about=""><dc:format>image/svg+xml</dc:format><dc:type
           rdf:resource="http://purl.org/dc/dcmitype/StillImage" /><dc:title /></cc:Work></rdf:RDF></metadata><defs
     id="defs6"><clipPath
       clipPathUnits="userSpaceOnUse"
       id="clipPath18"><path
         d="M 0,595.275 H 841.89 V 0 H 0 Z"
         id="path16"
         inkscape:connector-curvature="0" /></clipPath><clipPath
       clipPathUnits="userSpaceOnUse"
       id="clipPath30"><path
         d="M 545.541,301.42 H 905.867 V -58.7578 H 545.541 Z"
         id="path28"
         inkscape:connector-curvature="0" /></clipPath><clipPath
       clipPathUnits="userSpaceOnUse"
       id="clipPath76"><path
         d="M 0,595.275 H 841.89 V 0 H 0 Z"
         id="path74"
         inkscape:connector-curvature="0" /></clipPath></defs><sodipodi:namedview
     pagecolor="#ffffff"
     bordercolor="#666666"
     borderopacity="1"
     objecttolerance="10"
     gridtolerance="10"
     guidetolerance="10"
     inkscape:pageopacity="0"
     inkscape:pageshadow="2"
     inkscape:window-width="1366"
     inkscape:window-height="715"
     id="namedview4"
     showgrid="false"
     inkscape:zoom="0.66724868"
     inkscape:cx="524.81998"
     inkscape:cy="431.31203"
     inkscape:window-x="-8"
     inkscape:window-y="-8"
     inkscape:window-maximized="1"
     inkscape:current-layer="g10" /><g
     id="g10"
     inkscape:groupmode="layer"
     inkscape:label="formlabs_keinMetall"
     transform="matrix(1.3333333,0,0,-1.3333333,0,793.7)"><path
       inkscape:connector-curvature="0"
       id="path22"
       style="fill:#c51f29;fill-opacity:1;fill-rule:nonzero;stroke:none"
       d="m 800.8984,329.5933 c 0,-7.795 -6.378,-14.173 -14.173,-14.173 H -3.9286 c -7.796,0 -14.173,6.378 -14.173,14.173 v 98.509 c 0,7.795 6.377,14.173 14.173,14.173 h 790.654 c 7.795,0 14.173,-6.378 14.173,-14.173 z" /><g
       id="g24"><g
         id="g26" /><g
         id="g46"><g
           clip-path="url(#clipPath30)"
           id="g44"
           style="opacity:0.30000299"><g
             transform="translate(719.8145,-40.6641)"
             id="g34"><path
               d="m 0,0 -37.174,21.457 v 42.236 c 1.326,0.536 2.615,1.143 3.871,1.879 20.412,11.866 22.553,46.303 4.758,76.942 -17.789,30.621 -48.766,45.843 -69.185,33.988 -20.424,-11.857 -22.561,-46.315 -4.764,-76.947 2.621,-4.504 5.523,-8.662 8.631,-12.459 V 54.174 l -43.25,24.969 v 158.434 l -15.836,9.146 c -13.531,-25.292 -21.324,-54.112 -21.324,-84.795 0,-97.516 77.503,-176.897 174.273,-180.022 z"
               style="fill:#349963;fill-opacity:1;fill-rule:nonzero;stroke:none"
               id="path32"
               inkscape:connector-curvature="0" /></g><g
             transform="translate(884.5742,206.001)"
             id="g38"><path
               d="M 0,0 -15.873,-9.168 V -59.28 l -29.811,-16.912 c -2.171,2.531 -4.697,4.703 -7.621,6.402 -20.422,11.859 -51.406,-3.359 -69.195,-33.984 -17.779,-30.639 -15.66,-65.08 4.752,-76.944 20.43,-11.857 51.404,3.356 69.197,33.989 3.842,6.617 6.756,13.408 8.752,20.121 l 23.926,13.859 v -54.773 l -136.861,-79.018 v -18.209 c 96.664,3.24 174.027,82.572 174.027,180.014 C 21.293,-54.071 13.52,-25.269 0,0"
               style="fill:#213a64;fill-opacity:1;fill-rule:nonzero;stroke:none"
               id="path36"
               inkscape:connector-curvature="0" /></g><g
             transform="translate(588.9473,207.2002)"
             id="g42"><path
               d="M 0,0 42.676,24.637 70.025,8.797 c -0.976,-2.969 -1.5,-6.053 -1.5,-9.221 0,-23.611 28.709,-42.751 64.137,-42.751 35.422,0 64.137,19.14 64.137,42.751 0,23.627 -28.715,42.758 -64.137,42.758 -7.902,0 -15.469,-0.954 -22.465,-2.702 L 89.256,51.53 136.77,78.954 273.594,-0.037 c 5.92,3.419 11.31,6.535 16.015,9.25 C 257.801,60.208 201.312,94.22 136.77,94.22 72.246,94.22 15.766,60.23 -16.055,9.26 -11.225,6.475 -5.844,3.377 0,0"
               style="fill:#c51f29;fill-opacity:1;fill-rule:nonzero;stroke:none"
               id="path40"
               inkscape:connector-curvature="0" /></g></g></g></g><text
       transform="matrix(1,0,0,-1,30.5576,486.7187)"
       style="font-variant:normal;font-weight:normal;font-stretch:normal;font-size:79.89409637px;font-family:Helvetica;-inkscape-font-specification:Helvetica;writing-mode:lr-tb;fill:#231f20;fill-opacity:1;fill-rule:nonzero;stroke:none"
       id="text50"><tspan
         x="0 53.289364 93.236412 137.65753 159.86809 204.28922 248.71033"
         y="0"
         sodipodi:role="line"
         id="tspan48">Achtung</tspan></text>
<text
       transform="scale(1,-1)"
       style="font-variant:normal;font-weight:normal;font-stretch:normal;font-size:44.79560089px;font-family:Helvetica;-inkscape-font-specification:Helvetica;writing-mode:lr-tb;fill:#ffffff;fill-opacity:1;fill-rule:nonzero;stroke:none"
       id="text54"
       x="36.278091"
       y="-390.31589"><tspan
         sodipodi:role="line"
         id="tspan52"
         x="36.278091"
         y="-390.31589">Nur Holzspatel zum Lösen verwenden</tspan></text>
<text
       transform="scale(1,-1)"
       style="font-style:italic;font-variant:normal;font-weight:normal;font-stretch:normal;font-size:44.79560089px;font-family:'Helvetica Neue';-inkscape-font-specification:'Helvetica Neue Italic';writing-mode:lr-tb;fill:#d3d2d2;fill-opacity:1;fill-rule:nonzero;stroke:none;"
       id="text58"
       x="18.736107"
       y="-338.3082"><tspan
         x="18.736107"
         y="-338.3082"
         sodipodi:role="line"
         id="tspan56">Use only wooden spatula for loosening</tspan></text>
<text
       transform="matrix(1,0,0,-1,30.5571,245.1636)"
       style="font-variant:normal;font-weight:normal;font-stretch:normal;font-size:34.34469986px;font-family:Helvetica;-inkscape-font-specification:Helvetica;writing-mode:lr-tb;fill:#231f20;fill-opacity:1;fill-rule:nonzero;stroke:none"
       id="text68"><tspan
         sodipodi:role="line"
         id="tspan66"
         x="0"
         y="0">Nur Holzspatel zum Ablösen der</tspan><tspan
         sodipodi:role="line"
         x="0"
         y="42.930874"
         id="tspan4625">gedruckten Objekte verwenden.</tspan><tspan
         sodipodi:role="line"
         x="0"
         y="85.861748"
         id="tspan4627">Metall verkratzt die Buildplatte.</tspan><tspan
         sodipodi:role="line"
         x="0"
         y="128.79262"
         id="tspan4629" /></text>
<g
       id="g70"><g
         id="g72"
         clip-path="url(#clipPath76)"><g
           id="g78"
           transform="translate(30.5576,476.2754)"><path
             d="M 0,0 H 927.841"
             style="fill:none;stroke:#231f20;stroke-width:2;stroke-linecap:butt;stroke-linejoin:miter;stroke-miterlimit:10;stroke-dasharray:none;stroke-opacity:1"
             id="path80"
             inkscape:connector-curvature="0" /></g><text
           transform="matrix(1,0,0,-1,4.9458,4.5508)"
           style="font-variant:normal;font-weight:normal;font-stretch:normal;font-size:8.45419979px;font-family:Helvetica;-inkscape-font-specification:Helvetica;writing-mode:lr-tb;fill:#110f0d;fill-opacity:1;fill-rule:nonzero;stroke:none"
           id="text84"><tspan
             x="0 4.7005353 7.0508027 9.4010706 14.101605 18.328705 20.678974 23.029242 25.379509 30.080044 31.956877 34.307144 39.007679 43.708214 48.408749 50.759018 54.986118 59.686653 66.729004 69.079269 71.429535 76.130074 80.830605 83.645851 85.996124 90.696655 95.397194 97.274025 101.97456 106.67509 109.02536 113.7259 118.42644 122.65353 126.88063 129.2309 133.93144 135.80827 140.5088 145.20934 147.5596 154.60196 159.30249 163.52959 165.87985 170.5804 173.39565"
             y="0"
             sodipodi:role="line"
             id="tspan82">https://github.com/fau-fablab/docs/blob/master/Hinweisschilder_divers/formlabs_keinMetall.pdf</tspan></text>
</g></g><text
       y="-120.6636"
       x="30.5571"
       style="font-variant:normal;font-weight:normal;font-stretch:normal;font-size:34.34469986px;font-family:Helvetica;-inkscape-font-specification:Helvetica;writing-mode:lr-tb;fill:#666666;fill-opacity:1;fill-rule:nonzero;stroke:none;stroke-width:0.99999994"
       id="text68-3"
       transform="scale(1,-1)"><tspan
         style="font-style:normal;font-variant:normal;font-weight:normal;font-stretch:normal;font-family:'Helvetica Neue';-inkscape-font-specification:'Helvetica Neue';fill:#666666;stroke-width:0.99999994"
         sodipodi:role="line"
         x="30.5571"
         y="-120.6636"
         id="tspan4549">Only use wooden spatulas to</tspan><tspan
         style="font-style:normal;font-variant:normal;font-weight:normal;font-stretch:normal;font-family:'Helvetica Neue';-inkscape-font-specification:'Helvetica Neue';fill:#666666;stroke-width:0.99999994"
         sodipodi:role="line"
         x="30.5571"
         y="-76.331512"
         id="tspan4560">remove the printed objects.</tspan><tspan
         style="font-style:normal;font-variant:normal;font-weight:normal;font-stretch:normal;font-family:'Helvetica Neue';-inkscape-font-specification:'Helvetica Neue';fill:#666666;stroke-width:0.99999994"
         sodipodi:role="line"
         x="30.5571"
         y="-31.999424"
         id="tspan4562">Metal damages the build plate.</tspan></text>
</g></svg>