<?xml version="1.0" encoding="UTF-8" standalone="no"?>
<svg
   xmlns:dc="http://purl.org/dc/elements/1.1/"
   xmlns:cc="http://creativecommons.org/ns#"
   xmlns:rdf="http://www.w3.org/1999/02/22-rdf-syntax-ns#"
   xmlns:svg="http://www.w3.org/2000/svg"
   xmlns="http://www.w3.org/2000/svg"
   xmlns:sodipodi="http://sodipodi.sourceforge.net/DTD/sodipodi-0.dtd"
   xmlns:inkscape="http://www.inkscape.org/namespaces/inkscape"
   version="1.0"
   width="210mm"
   height="297mm"
   id="svg2"
   sodipodi:docname="Chemiebereich-Schutzbrille.svg"
   inkscape:version="0.92.1 r15371">
  <metadata
     id="metadata9">
    <rdf:RDF>
      <cc:Work
         rdf:about="">
        <dc:format>image/svg+xml</dc:format>
        <dc:type
           rdf:resource="http://purl.org/dc/dcmitype/StillImage" />
        <dc:title />
      </cc:Work>
    </rdf:RDF>
  </metadata>
  <sodipodi:namedview
     pagecolor="#ffffff"
     bordercolor="#666666"
     borderopacity="1"
     objecttolerance="10"
     gridtolerance="10"
     guidetolerance="10"
     inkscape:pageopacity="0"
     inkscape:pageshadow="2"
     inkscape:window-width="1366"
     inkscape:window-height="715"
     id="namedview7"
     showgrid="false"
     units="mm"
     inkscape:zoom="0.97517857"
     inkscape:cx="396.85039"
     inkscape:cy="125.13782"
     inkscape:window-x="-8"
     inkscape:window-y="-8"
     inkscape:window-maximized="1"
     inkscape:current-layer="svg2" />
  <defs
     id="defs4" />
  <g
     id="g4489"
     transform="matrix(1.1997331,0,0,1.1997331,-70.487864,9.9686323)">
    <g
       transform="matrix(0.99309154,0,0,0.99309154,-9.7894096,-234.35147)"
       id="g3692">
      <circle
         cx="396"
         cy="529"
         r="285"
         style="fill:#ffffff;stroke:#000000;stroke-width:1"
         id="circle3688" />
      <circle
         cx="396"
         cy="529"
         r="281"
         style="fill:#004488;stroke:none"
         id="circle3690" />
    </g>
    <g
       transform="matrix(0.99309154,0,0,0.99309154,10.5213,-206.65415)"
       id="layer1">
      <g
         transform="translate(1178,-197.65)"
         style="fill:#ffffff;fill-opacity:1;stroke:none"
         id="g3722">
        <path
           inkscape:connector-curvature="0"
           d="m -936.44,659.06 -18.73,-71.27 c 0,0 31.06,-42.02 36.08,-54.81 0,0 35.63,1.37 68.07,-37.92 0,0 23.75,-3.65 47.05,-15.53 22.47,8.08 79.48,20.56 79.48,20.56 26.04,41.11 71.72,89.99 71.72,89.99 l -16.44,71.72 -10.05,-0.46 16.9,-67.15 -64.87,-60.3 c -3.2,7.31 4.57,19.64 4.57,19.64 0,-0.45 -32.43,-5.02 -50.25,-23.29 1.55,12.37 12.79,21.01 12.79,21.01 2.29,1.83 -65.32,-1.37 -88.62,-39.74 0,0 -25.12,52.07 -65.32,37.46 l -31.52,41.11 19.19,71.72 z"
           id="path3694" />
        <path
           inkscape:connector-curvature="0"
           d="m -865.06,672.72 c -16.56,0.11 -34.13,2.23 -46.6,7.19 0,0 10.87,66.84 13.19,70.71 16.24,17.61 27.04,15.11 38.97,14.47 10.84,-0.51 27.7,-4.67 36.91,-26.59 2.32,-5.42 1.03,-59.63 1.03,-59.63 -7.27,-3.83 -24.74,-6.28 -43.5,-6.15 z m 11.25,12.62 c 10.82,-0.18 19.79,0.45 21.65,2.32 3.36,-3.1 0.96,43.25 0,46.96 -2.96,10.2 -13.11,17.73 -26.5,20.35 -14.8,2.89 -29.24,-2.02 -34.4,-17.5 -2.58,-4.65 -6,-46.24 -6.19,-46.72 4.19,-2.58 27.4,-5.1 45.44,-5.41 z"
           id="path3696" />
        <path
           inkscape:connector-curvature="0"
           d="m -847.84,691.41 c -14.99,0.58 -30.18,0.02 -44.78,3.75 2.69,15.27 0.29,32.26 8.09,46.18 9.38,12.02 28.62,10.22 39.56,1.35 7.44,-5.25 8.26,-14.65 7.86,-22.97 0.11,-9.1 1.59,-18.72 -0.05,-27.56 -3.27,-1.2 -7.22,-0.45 -10.68,-0.75 z"
           id="path3698" />
        <path
           inkscape:connector-curvature="0"
           d="m -938.19,666.94 c 6.62,0 19.69,5.95 22.54,9.61 1.1,1.42 -0.32,10.87 -0.32,10.87 -5.83,-5.51 -23.01,-12.76 -23.01,-12.76 z"
           id="path3700" />
        <path
           inkscape:connector-curvature="0"
           d="m -920.54,665.52 c 0,0 36.87,0.79 34.82,1.89 -4.77,2.57 -26.78,6.46 -26.78,6.46 z"
           id="path3702" />
        <path
           inkscape:connector-curvature="0"
           d="m -926.69,687.23 c 2.1,2.1 11.19,6.3 11.19,6.3 -1.17,4.2 11.07,49.43 8.51,49.78 -15.13,-3.48 -20.41,-56.78 -19.7,-56.08 z"
           id="path3704" />
        <path
           inkscape:connector-curvature="0"
           d="m -803.62,677.59 c -0.14,0.01 -0.28,0.03 -0.41,0.03 -0.07,0.01 -0.15,0 -0.22,0 -0.15,0.01 -0.29,0.03 -0.44,0.04 -0.35,0.02 -0.7,0.07 -1.06,0.12 -0.04,0.01 -0.08,0 -0.12,0 -4.65,0.6 -7.63,2.5 -7.63,2.5 v 7.31 c 0,0 0.71,-0.38 2.03,-0.81 3.25,-0.68 6.05,-0.94 8.41,-1 2.37,0.06 5.16,0.34 8.44,1.03 1.28,0.42 1.96,0.78 1.96,0.78 v -7.31 c 0,0 -2.98,-1.9 -7.62,-2.5 -0.04,0 -0.09,0.01 -0.13,0 -0.36,-0.05 -0.71,-0.1 -1.06,-0.12 -0.15,-0.02 -0.29,-0.03 -0.44,-0.04 -0.07,0 -0.14,0.01 -0.21,0 -0.32,-0.01 -0.63,-0.03 -0.94,-0.03 -0.19,0 -0.37,0 -0.56,0 z"
           id="path3706" />
        <path
           inkscape:connector-curvature="0"
           d="m -803.62,692.86 c -0.14,0.01 -0.28,0.03 -0.41,0.03 -0.07,0.01 -0.15,0 -0.22,0 -0.15,0.01 -0.29,0.02 -0.44,0.04 -0.35,0.02 -0.7,0.07 -1.06,0.12 -0.04,0.01 -0.08,-0.01 -0.12,0 -4.65,0.6 -7.63,2.5 -7.63,2.5 v 7.31 c 0,0 0.71,-0.38 2.03,-0.81 3.25,-0.68 6.05,-0.94 8.41,-1 2.37,0.06 5.16,0.34 8.44,1.03 1.28,0.42 1.96,0.78 1.96,0.78 v -7.31 c 0,0 -2.98,-1.9 -7.62,-2.5 -0.04,0 -0.09,0.01 -0.13,0 -0.36,-0.05 -0.71,-0.1 -1.06,-0.12 -0.15,-0.02 -0.29,-0.03 -0.44,-0.04 -0.07,0 -0.14,0.01 -0.21,0 -0.32,-0.01 -0.63,-0.03 -0.94,-0.03 -0.19,0 -0.37,0 -0.56,0 z"
           id="path3708" />
        <path
           inkscape:connector-curvature="0"
           d="m -744.47,672.72 c -17.49,0.16 -33.35,2.54 -40.19,6.15 0,0 -1.29,54.21 1.04,59.63 9.2,21.92 26.06,26.08 36.9,26.59 11.93,0.64 22.73,3.14 38.97,-14.47 2.32,-3.87 13.16,-70.71 13.16,-70.71 -13.3,-5.3 -32.39,-7.35 -49.88,-7.19 z m -13.19,12.62 c 18.44,-0.17 46.08,2.57 50.69,5.41 -0.19,0.48 -3.64,42.07 -6.22,46.72 -5.16,15.48 -19.6,20.39 -34.4,17.5 -13.39,-2.62 -23.54,-10.15 -26.5,-20.35 -0.96,-3.71 -3.36,-50.06 0,-46.96 1.55,-1.56 8.05,-2.24 16.43,-2.32 z"
           id="path3710" />
        <path
           inkscape:connector-curvature="0"
           d="m -758.39,691.41 c 14.98,0.58 30.17,0.02 44.78,3.75 -2.7,15.27 -0.3,32.26 -8.09,46.18 -9.39,12.02 -28.63,10.22 -39.57,1.35 -7.44,-5.25 -8.25,-14.65 -7.86,-22.97 -0.11,-9.1 -1.58,-18.72 0.05,-27.56 3.27,-1.2 7.23,-0.45 10.69,-0.75 z"
           id="path3712" />
        <path
           inkscape:connector-curvature="0"
           d="m -668.05,666.94 c -6.62,0 -19.69,5.95 -22.53,9.61 -1.1,1.42 0.31,10.87 0.31,10.87 5.83,-5.51 23.01,-12.76 23.01,-12.76 z"
           id="path3714" />
        <path
           inkscape:connector-curvature="0"
           d="m -685.7,665.52 c 0,0 -36.87,0.79 -34.82,1.89 4.78,2.57 26.79,6.46 26.79,6.46 z"
           id="path3716" />
        <path
           inkscape:connector-curvature="0"
           d="m -679.54,687.23 c -2.1,2.1 -11.2,6.3 -11.2,6.3 1.17,4.2 -11.07,49.43 -8.51,49.78 15.13,-3.48 20.41,-56.78 19.71,-56.08 z"
           id="path3718" />
        <path
           inkscape:connector-curvature="0"
           d="m -943.47,680.31 c -0.19,-0.01 -0.35,0.02 -0.5,0.03 -5.79,0.63 -10,8.72 -9.78,10.63 0.65,6.75 16.75,70.81 16.75,70.81 4.05,37.17 18.98,27.71 20.5,29.16 4.23,4.05 6.1,26.55 9.5,34.78 4.97,46.74 25.87,55.35 35.84,63.97 32.26,33.53 47.55,26.72 68.04,27.93 0.08,0.01 0.16,0 0.25,0 20.48,-1.21 35.8,5.6 68.06,-27.93 9.97,-8.62 30.84,-17.23 35.81,-63.97 3.4,-8.23 5.27,-30.73 9.5,-34.78 1.52,-1.45 16.45,8.01 20.5,-29.16 0,0 16.13,-64.06 16.78,-70.81 0.23,-1.91 -3.99,-10 -9.78,-10.63 -2.4,-0.26 -10.44,3 -10.37,5.6 12.03,1.81 11.77,2.42 10.21,11.25 0,0 -16.47,66.01 -21.93,84.43 -15.83,1.29 -15.63,7.36 -17.38,16.79 -1.84,9.93 -8.21,44.32 -14.28,59.59 -19.28,23.59 -32.88,32.28 -54.03,47.81 -6.44,3.68 -22.6,3.2 -32.91,3.75 0,0 -27.09,-0.07 -33.53,-3.75 -21.15,-15.53 -34.72,-24.22 -54,-47.81 -6.07,-15.27 -12.44,-49.66 -14.28,-59.59 -1.75,-9.43 -1.58,-15.5 -17.41,-16.79 -5.46,-18.42 -21.9,-84.43 -21.9,-84.43 -1.56,-8.83 -1.85,-9.44 10.19,-11.25 0.06,-2.44 -6.99,-5.47 -9.85,-5.63 z"
           id="path3720" />
      </g>
    </g>
  </g>
  <text
     xml:space="preserve"
     style="font-style:italic;font-variant:normal;font-weight:bold;font-stretch:normal;font-size:65.75882721px;line-height:1.25;font-family:Helvetica;-inkscape-font-specification:'Helvetica Bold Italic';text-align:start;letter-spacing:0px;word-spacing:0px;writing-mode:lr-tb;text-anchor:start;fill:#000000;fill-opacity:1;stroke:none;stroke-width:2.19196081px;stroke-linecap:butt;stroke-linejoin:miter;stroke-opacity:1"
     x="401.12796"
     y="791.43341"
     id="text4497"><tspan
       sodipodi:role="line"
       x="401.12796"
       y="791.43341"
       style="font-style:normal;font-variant:normal;font-weight:bold;font-stretch:normal;line-height:2.25;font-family:Helvetica;-inkscape-font-specification:'Helvetica Bold';text-align:center;text-anchor:middle;stroke-width:2.19196081px"
       id="tspan4516">Chemie-Bereich</tspan><tspan
       sodipodi:role="line"
       x="401.12796"
       y="906.51135"
       style="font-style:normal;font-variant:normal;font-weight:normal;font-stretch:normal;line-height:1.25;font-family:Helvetica;-inkscape-font-specification:Helvetica;text-align:center;text-anchor:middle;stroke-width:2.19196081px"
       id="tspan3800">Hier immer</tspan><tspan
       sodipodi:role="line"
       x="401.12796"
       y="988.7099"
       style="font-style:normal;font-variant:normal;font-weight:normal;font-stretch:normal;line-height:1.25;font-family:Helvetica;-inkscape-font-specification:Helvetica;text-align:center;text-anchor:middle;stroke-width:2.19196081px"
       id="tspan3804">Schutzbrille tragen!</tspan></text>
  <text
     xml:space="preserve"
     style="font-style:italic;font-variant:normal;font-weight:bold;font-stretch:normal;font-size:30px;line-height:25.20000076px;font-family:'长仿宋体';-inkscape-font-specification:'长仿宋体 Bold Italic';text-align:start;letter-spacing:0px;word-spacing:0px;writing-mode:lr-tb;text-anchor:start;fill:#999999;fill-opacity:1;stroke:none;stroke-width:1px;stroke-linecap:butt;stroke-linejoin:miter;stroke-opacity:1"
     x="11.979683"
     y="1077.2533"
     id="text4493"><tspan
       sodipodi:role="line"
       id="tspan4491"
       x="11.979683"
       y="1077.2533"
       style="font-style:normal;font-variant:normal;font-weight:300;font-stretch:normal;font-size:16px;font-family:'Source Sans Pro';-inkscape-font-specification:'Source Sans Pro Light';fill:#999999">https://github.com/fau-fablab/docs/blob/master/</tspan><tspan
       sodipodi:role="line"
       x="11.979683"
       y="1106.476"
       style="font-style:normal;font-variant:normal;font-weight:300;font-stretch:normal;font-size:16px;font-family:'Source Sans Pro';-inkscape-font-specification:'Source Sans Pro Light';fill:#999999"
       id="tspan4518">Arbeitsschutz/Hinweisschilder/Chemiebereich-Schutzbrille.svg</tspan></text>
</svg>
