<?xml version="1.0" encoding="UTF-8" standalone="no"?>
<svg
   xmlns:dc="http://purl.org/dc/elements/1.1/"
   xmlns:cc="http://creativecommons.org/ns#"
   xmlns:rdf="http://www.w3.org/1999/02/22-rdf-syntax-ns#"
   xmlns:svg="http://www.w3.org/2000/svg"
   xmlns="http://www.w3.org/2000/svg"
   xmlns:sodipodi="http://sodipodi.sourceforge.net/DTD/sodipodi-0.dtd"
   xmlns:inkscape="http://www.inkscape.org/namespaces/inkscape"
   version="1.0"
   width="210mm"
   height="297mm"
   id="svg2"
   sodipodi:docname="Chemiebereich-keineLebensmittel.svg"
   inkscape:version="0.92.1 r15371">
  <metadata
     id="metadata9">
    <rdf:RDF>
      <cc:Work
         rdf:about="">
        <dc:format>image/svg+xml</dc:format>
        <dc:type
           rdf:resource="http://purl.org/dc/dcmitype/StillImage" />
        <dc:title />
      </cc:Work>
    </rdf:RDF>
  </metadata>
  <sodipodi:namedview
     pagecolor="#ffffff"
     bordercolor="#666666"
     borderopacity="1"
     objecttolerance="10"
     gridtolerance="10"
     guidetolerance="10"
     inkscape:pageopacity="0"
     inkscape:pageshadow="2"
     inkscape:window-width="1366"
     inkscape:window-height="715"
     id="namedview7"
     showgrid="false"
     units="mm"
     inkscape:zoom="0.97517857"
     inkscape:cx="396.85039"
     inkscape:cy="112.02136"
     inkscape:window-x="-8"
     inkscape:window-y="-8"
     inkscape:window-maximized="1"
     inkscape:current-layer="svg2" />
  <defs
     id="defs4" />
  <g
     id="g4489"
     transform="translate(16.499263,117.28626)">
    <g
       id="g824"
       transform="matrix(1.1849287,0,0,1.1849287,-75.910773,-84.793)">
      <path
         d="m 670.49233,290.41209 c 0,158.27 -128.3,286.57001 -286.57,286.57001 -158.27,0 -286.570002,-128.30001 -286.570002,-286.57001 0,-158.27 128.300002,-286.5699968 286.570002,-286.5699968 158.27,0 286.57,128.2999968 286.57,286.5699968 z"
         id="path8"
         style="fill:#ffffff;stroke:#000000;stroke-width:1"
         inkscape:connector-curvature="0" />
      <path
         d="m 222.13713,348.80046 c 0.83,-10.79 8.68,-28.7 28.66,-28.64 l 46.41,-0.56 64.08,0.21 c 27.15,0.36 32.2,22.01 32.32,29.42 z m 10.62,40.18 c -24.613,-0.97 -21.64,-28.47 -6.64,-28.52 l 157.27,-0.53 c 17.54,-0.78 13.69,28.63 -0.32,28.31 z m 202.15,41.06 -15.97,-109.49 -6.46,-44.77 -7.23,-56.8 20.02,-0.1 -19.19,-67.79 13.63,-0.82 19.52,68.71 h 114.06 c 0.08,9.71 -25.59,204.98 -27.81,210.37 z m -179.35,0.33 c -24.6,-4.31 -33.15,-13.54 -33.49,-30.17 l 164.43,0.11 c 0,5.35 -6.26,30.29 -32.03,30.24 z"
         id="path10"
         style="fill:#000000"
         inkscape:connector-curvature="0" />
      <path
         d="m 383.90233,12.061593 c -68.53,0 -131.28,24.947501 -179.72,66.250501 -1.27,1.083 -2.53,2.175 -3.78,3.281 -0.5,0.444 -1,0.895 -1.5,1.344 -1.07,0.96 -2.13,1.929 -3.189,2.906 -0.281,0.26 -0.563,0.519 -0.843,0.781 -1.25,1.165 -2.492,2.343 -3.719,3.531 -1.408,1.362 -2.809,2.734 -4.188,4.125 -1.353,1.365 -2.706,2.732 -4.031,4.125 -1.374,1.446 -2.719,2.930996 -4.062,4.405996 -0.154,0.171 -0.316,0.331 -0.469,0.501 -1.162,1.28 -2.3,2.57 -3.438,3.87 -1.242,1.43 -2.442,2.87 -3.656,4.32 -0.047,0.05 -0.109,0.1 -0.156,0.15 -40.496,48.38 -64.9061,110.73 -64.9061,178.78 0,153.66 124.3771,278.34001 277.6571,278.34001 68.68,0 131.54,-25.07 180.03,-66.53 l 0.03,0.03 c 0.39,-0.33 0.78,-0.66 1.16,-1 0.16,-0.13 0.31,-0.27 0.47,-0.4 0.94,-0.82 1.88,-1.64 2.81,-2.47 0.74,-0.66 1.46,-1.31 2.19,-1.97 0.21,-0.19 0.42,-0.37 0.62,-0.56 0.97,-0.89 1.92,-1.79 2.88,-2.69 0.86,-0.81 1.71,-1.62 2.56,-2.44 0.12,-0.11 0.23,-0.23 0.35,-0.34 1.08,-1.06 2.14,-2.12 3.21,-3.19 0.32,-0.31 0.63,-0.62 0.94,-0.94 1.25,-1.26 2.49,-2.55 3.72,-3.84 0.12,-0.13 0.25,-0.25 0.38,-0.38 1.4,-1.48 2.81,-2.98 4.18,-4.5 1.26,-1.39 2.49,-2.8 3.72,-4.21 0.23,-0.27 0.46,-0.52 0.69,-0.79 1.05,-1.21 2.09,-2.45 3.12,-3.68 40.33,-48.33001 64.63,-110.55001 64.63,-178.44001 0,-153.66 -124.41,-278.383197 -277.69,-278.383197 z m 0,62.062501 c 119.11,0 215.78,96.907996 215.78,216.307996 0,50.85 -17.51,97.62 -46.84,134.56 l -304.5,-302.78 c 37.06,-30.057996 84.21,-48.089996 135.56,-48.089996 z m -168.62,81.407996 304.56,302.84001 c -37.12,30.24 -84.42,48.37 -135.94,48.37 -119.11,0 -215.75,-96.91001 -215.75,-216.31001 0,-51 17.636,-97.91 47.13,-134.91 z"
         id="path12"
         style="fill:#cc0000;stroke:none"
         inkscape:connector-curvature="0" />
    </g>
  </g>
  <text
     xml:space="preserve"
     style="font-style:italic;font-variant:normal;font-weight:bold;font-stretch:normal;font-size:30px;line-height:25.20000076px;font-family:'长仿宋体';-inkscape-font-specification:'长仿宋体 Bold Italic';text-align:start;letter-spacing:0px;word-spacing:0px;writing-mode:lr-tb;text-anchor:start;fill:#999999;fill-opacity:1;stroke:none;stroke-width:1px;stroke-linecap:butt;stroke-linejoin:miter;stroke-opacity:1;"
     x="12.28302"
     y="1079.9501"
     id="text4493"><tspan
       sodipodi:role="line"
       id="tspan4491"
       x="12.28302"
       y="1079.9501"
       style="font-style:normal;font-variant:normal;font-weight:300;font-stretch:normal;font-size:16px;font-family:'Source Sans Pro';-inkscape-font-specification:'Source Sans Pro Light';fill:#999999;">https://github.com/fau-fablab/docs/blob/master/</tspan><tspan
       sodipodi:role="line"
       x="12.28302"
       y="1109.1727"
       style="font-style:normal;font-variant:normal;font-weight:300;font-stretch:normal;font-size:16px;font-family:'Source Sans Pro';-inkscape-font-specification:'Source Sans Pro Light';fill:#999999;"
       id="tspan4492">Arbeitsschutz/Hinweisschilder/Chemiebereich-keineLebensmittel.svg</tspan></text>
  <text
     xml:space="preserve"
     style="font-style:italic;font-variant:normal;font-weight:bold;font-stretch:normal;font-size:65.75882721px;line-height:55.23741531px;font-family:Helvetica;-inkscape-font-specification:'Helvetica Bold Italic';text-align:start;letter-spacing:0px;word-spacing:0px;writing-mode:lr-tb;text-anchor:start;fill:#000000;fill-opacity:1;stroke:none;stroke-width:2.19196081px;stroke-linecap:butt;stroke-linejoin:miter;stroke-opacity:1"
     x="401.12796"
     y="830.71655"
     id="text4497"><tspan
       sodipodi:role="line"
       x="401.12796"
       y="830.71655"
       style="font-style:normal;font-variant:normal;font-weight:bold;font-stretch:normal;font-family:Helvetica;-inkscape-font-specification:'Helvetica Bold';text-align:center;text-anchor:middle;stroke-width:2.19196081px"
       id="tspan4509">Chemie-Bereich</tspan><tspan
       sodipodi:role="line"
       x="401.12796"
       y="885.95398"
       style="font-style:normal;font-variant:normal;font-weight:normal;font-stretch:normal;font-family:Helvetica;-inkscape-font-specification:Helvetica;text-align:center;text-anchor:middle;stroke-width:2.19196081px"
       id="tspan4516" /><tspan
       sodipodi:role="line"
       x="401.12796"
       y="941.19141"
       style="font-style:normal;font-variant:normal;font-weight:normal;font-stretch:normal;font-family:Helvetica;-inkscape-font-specification:Helvetica;text-align:center;text-anchor:middle;stroke-width:2.19196081px"
       id="tspan4518">Nicht für Lebensmittel!</tspan></text>
</svg>
