<?xml version="1.0" encoding="UTF-8" standalone="no"?>
<svg
   xmlns:dc="http://purl.org/dc/elements/1.1/"
   xmlns:cc="http://creativecommons.org/ns#"
   xmlns:rdf="http://www.w3.org/1999/02/22-rdf-syntax-ns#"
   xmlns:svg="http://www.w3.org/2000/svg"
   xmlns="http://www.w3.org/2000/svg"
   xmlns:sodipodi="http://sodipodi.sourceforge.net/DTD/sodipodi-0.dtd"
   xmlns:inkscape="http://www.inkscape.org/namespaces/inkscape"
   version="1.0"
   width="744.09448"
   height="1052.3622"
   id="svg2"
   inkscape:version="0.92.1 r15371"
   sodipodi:docname="Kein Trinkwasser.svg">
  <metadata
     id="metadata3008">
    <rdf:RDF>
      <cc:Work
         rdf:about="">
        <dc:format>image/svg+xml</dc:format>
        <dc:type
           rdf:resource="http://purl.org/dc/dcmitype/StillImage" />
        <dc:title />
      </cc:Work>
    </rdf:RDF>
  </metadata>
  <sodipodi:namedview
     pagecolor="#ffffff"
     bordercolor="#666666"
     borderopacity="1"
     objecttolerance="10"
     gridtolerance="10"
     guidetolerance="10"
     inkscape:pageopacity="0"
     inkscape:pageshadow="2"
     inkscape:window-width="1366"
     inkscape:window-height="715"
     id="namedview3006"
     showgrid="false"
     inkscape:zoom="0.51883278"
     inkscape:cx="372.04724"
     inkscape:cy="526.18109"
     inkscape:window-x="-8"
     inkscape:window-y="-8"
     inkscape:window-maximized="1"
     inkscape:current-layer="svg2" />
  <defs
     id="defs16" />
  <g
     id="g4533"
     transform="translate(-67.358452,81.723681)">
    <g
       transform="matrix(1.2359537,0,0,1.2359537,-23.395693,-155.48029)"
       id="g4493">
      <g
         transform="matrix(0.958985,0,0,0.958985,-4.1383431,-123.42794)"
         id="g2999">
        <path
           d="m -45.024,125.63 c 0,18.05 -16.094,32.68 -35.947,32.68 -19.849,0 -35.949,-14.63 -35.949,-32.68 0,-18.05 16.1,-32.679 35.949,-32.679 19.853,0 35.947,14.629 35.947,32.679 z"
           transform="matrix(7.9719,0,0,8.7691,1040.2,-572.86)"
           style="fill:#ffffff;stroke:#000000;stroke-width:0.10427692;stroke-linecap:square;stroke-miterlimit:4"
           id="path3001"
           inkscape:connector-curvature="0" />
        <path
           d="m 279.24,685.03 c -0.45,-0.75 -5.96,-19.47 -12.25,-41.59 -6.29,-22.12 -15.38,-53.8 -20.19,-70.39 -4.81,-16.59 -9.26,-32.35 -9.89,-35.03 -0.62,-2.67 -1.61,-6.11 -2.21,-7.65 -0.81,-2.12 1.29,-3.5 8.59,-5.66 5.32,-1.57 10.6,-2.85 11.73,-2.85 1.13,0 3.29,4.73 4.8,10.51 l 2.75,10.51 14.37,1.31 c 17.01,1.54 24.43,3.7 37.09,10.79 5.18,2.9 11.23,5.27 13.46,5.27 2.22,0 9.56,-3.25 16.3,-7.22 11.21,-6.61 22.67,-10.46 29.7,-9.98 4.9,0.33 9.18,2.9 9.18,5.51 0,1.4 1.04,2.57 2.3,2.61 2.57,0.06 9.81,9.08 7.3,9.08 -0.88,0 -5.54,-1.34 -10.37,-2.98 -10.66,-3.61 -18.54,-1.82 -34.25,7.81 -15.84,9.7 -21.03,9.83 -38.92,1.01 -16.64,-8.2 -39.43,-12.87 -41.14,-8.44 -2.19,5.7 2.76,9.38 13.98,10.39 8.03,0.73 14.32,2.82 23.02,7.66 7.03,3.92 15.56,7.07 20.69,7.64 7.54,0.85 10.39,0.1 20.84,-5.47 19.45,-10.37 26.05,-11.37 44.17,-6.68 8.44,2.18 16.79,4.08 18.55,4.22 1.77,0.13 3.22,1.3 3.22,2.6 0,1.29 1.06,2.35 2.37,2.35 3.36,0 17.83,15.09 17.83,18.59 0,1.6 -4.46,18.44 -9.91,37.41 -5.45,18.98 -10.85,38 -12.01,42.27 l -2.1,7.77 h -64.09 c -35.25,0 -64.46,-0.62 -64.91,-1.37 z m 114.81,-35.19 c 10.1,-34.89 16.27,-59.02 15.32,-59.97 -1.98,-1.97 -29.38,-9.37 -34.96,-9.44 -3.03,-0.04 -12.51,3.42 -21.07,7.68 -21.33,10.62 -31.01,10.59 -51.76,-0.15 -14.08,-7.29 -27.25,-10.04 -27.25,-5.71 0,1.04 4.96,19.25 11.02,40.46 6.06,21.21 11.02,38.89 11.02,39.28 0,0.39 21.2,0.49 47.12,0.22 l 47.12,-0.49 3.44,-11.89 z m 49.17,-100.1 c -0.03,-0.76 -3.33,-4.94 -7.35,-9.3 -7.14,-7.77 -9.38,-15.25 -5.31,-17.76 2.06,-1.27 17.99,2.37 20.67,4.72 1.84,1.62 -4.09,23.71 -6.37,23.71 -0.87,0 -1.61,-0.62 -1.64,-1.37 z M 308.53,505.18 c -1.71,-8.51 -1.39,-29.03 0.45,-29.03 0.89,0 5.03,3.7 9.22,8.23 4.19,4.52 7.99,8.23 8.44,8.23 1.88,0 15.24,15.6 14.45,16.88 -0.48,0.77 -7.74,1.4 -16.14,1.4 h -15.27 z m 120.12,-38.24 c -5.52,-1.99 -13.12,-5.76 -16.9,-8.37 -6.31,-4.35 -8.14,-4.69 -22.25,-4.09 -13.47,0.57 -16.22,1.28 -22.12,5.77 -4.16,3.15 -7.62,4.56 -9.04,3.65 -1.26,-0.8 -8.69,-8.09 -16.5,-16.19 l -14.2,-14.73 7.77,-7.43 c 11.74,-11.2 15.74,-12.07 61.04,-13.25 l 40.4,-1.05 0.56,-7.77 0.56,-7.77 h -10.99 c -9.68,0 -11.44,-0.57 -14.79,-4.82 -4.84,-6.12 -4.86,-13.48 -0.06,-18.6 3.61,-3.87 5.03,-4.01 41.24,-4.01 36.22,0 37.63,0.14 41.25,4.01 4.7,5.02 4.8,12.58 0.24,18.18 -2.82,3.46 -5.79,4.49 -15.15,5.23 l -11.65,0.92 v 14.63 l 40.86,0.49 40.86,0.49 v 41.98 h -26.49 c -21.43,0 -27.04,0.54 -29.33,2.82 -1.56,1.55 -7.61,5.03 -13.45,7.74 -14.24,6.61 -36.97,7.56 -51.86,2.17 z"
           style="fill:#000000"
           id="path3003"
           inkscape:connector-curvature="0" />
        <path
           d="m 394.72,250.47 c -68.53,0 -131.28,24.95 -179.72,66.25 -1.27,1.08 -2.53,2.18 -3.78,3.28 -0.5,0.45 -1,0.9 -1.5,1.35 -1.07,0.96 -2.13,1.92 -3.19,2.9 -0.28,0.26 -0.56,0.52 -0.84,0.78 -1.25,1.17 -2.49,2.35 -3.72,3.53 -1.41,1.37 -2.81,2.74 -4.19,4.13 -1.35,1.36 -2.71,2.73 -4.03,4.12 -1.37,1.45 -2.72,2.93 -4.06,4.41 -0.16,0.17 -0.32,0.33 -0.47,0.5 -1.16,1.28 -2.3,2.57 -3.44,3.87 -1.24,1.43 -2.44,2.87 -3.65,4.32 -0.05,0.05 -0.11,0.1 -0.16,0.15 -40.5,48.38 -64.91,110.73 -64.91,178.78 0,153.66 124.38,278.34 277.66,278.34 68.68,0 131.54,-25.07 180.03,-66.53 l 0.03,0.03 c 0.39,-0.33 0.78,-0.66 1.16,-1 0.16,-0.13 0.31,-0.27 0.47,-0.4 0.94,-0.82 1.88,-1.64 2.81,-2.47 0.74,-0.66 1.46,-1.31 2.19,-1.97 0.21,-0.19 0.42,-0.37 0.62,-0.56 0.97,-0.89 1.92,-1.79 2.88,-2.69 0.86,-0.81 1.71,-1.62 2.56,-2.44 0.12,-0.11 0.23,-0.23 0.35,-0.34 1.08,-1.06 2.14,-2.12 3.21,-3.19 0.32,-0.31 0.63,-0.62 0.94,-0.94 1.25,-1.26 2.49,-2.55 3.72,-3.84 0.12,-0.13 0.25,-0.25 0.38,-0.38 1.4,-1.48 2.81,-2.98 4.18,-4.5 1.26,-1.39 2.49,-2.8 3.72,-4.21 0.23,-0.27 0.46,-0.52 0.69,-0.79 1.05,-1.21 2.09,-2.44 3.12,-3.68 40.33,-48.33 64.63,-110.55 64.63,-178.44 C 672.41,375.18 548,250.46 394.72,250.46 Z m 0,62.06 c 119.11,0 215.78,96.91 215.78,216.31 0,50.85 -17.51,97.62 -46.84,134.56 L 259.16,360.62 c 37.05,-30.06 84.21,-48.09 135.56,-48.09 z M 226.1,393.94 530.66,696.78 c -37.12,30.24 -84.42,48.37 -135.94,48.37 -119.11,0 -215.75,-96.91 -215.75,-216.31 0,-51 17.64,-97.91 47.13,-134.91 z"
           id="path12"
           style="fill:#cc0000;stroke:#cc0000;stroke-width:2.08553839"
           inkscape:connector-curvature="0" />
      </g>
    </g>
    <text
       id="text4497"
       y="749.34198"
       x="92.499863"
       style="font-style:normal;font-variant:normal;font-weight:normal;font-stretch:normal;font-size:87.353302px;line-height:1.25;font-family:'Helvetica Rounded LT Black';-inkscape-font-specification:'Helvetica Rounded LT Black, ';letter-spacing:0px;word-spacing:0px;fill:#000000;fill-opacity:1;stroke:none;stroke-width:2.33982062"
       xml:space="preserve"><tspan
         style="font-style:normal;font-variant:normal;font-weight:bold;font-stretch:normal;font-family:Helvetica;-inkscape-font-specification:'Helvetica Bold';stroke-width:2.33982062"
         y="749.34198"
         x="92.499863"
         id="tspan4495"
         sodipodi:role="line">Kein Trinkwasser!</tspan></text>
    <text
       id="text4497-5"
       y="845.20868"
       x="441.40594"
       style="font-style:normal;font-variant:normal;font-weight:normal;font-stretch:normal;font-size:60px;line-height:1.25;font-family:'Helvetica Rounded LT Black';-inkscape-font-specification:'Helvetica Rounded LT Black, ';text-align:center;letter-spacing:0px;word-spacing:0px;text-anchor:middle;fill:#000000;fill-opacity:1;stroke:none;stroke-width:2.33982062"
       xml:space="preserve"><tspan
         id="tspan4517"
         style="font-style:normal;font-variant:normal;font-weight:normal;font-stretch:normal;font-family:Helvetica;-inkscape-font-specification:Helvetica;text-align:center;text-anchor:middle;stroke-width:2.33982062"
         y="845.20868"
         x="449.72626"
         sodipodi:role="line">Trinkwasser oben am </tspan><tspan
         id="tspan4521"
         style="font-style:normal;font-variant:normal;font-weight:normal;font-stretch:normal;font-family:Helvetica;-inkscape-font-specification:Helvetica;text-align:center;text-anchor:middle;stroke-width:2.33982062"
         y="920.45062"
         x="441.40594"
         sodipodi:role="line">Wasserspender zapfen.</tspan></text>
  </g>
</svg>
